<!-- Generator: Adobe Illustrator 25.0.0, SVG Export Plug-In  -->
<svg height="113.6px" style="overflow:visible;" viewBox="0 0 271.5 113.6" width="271.5px"
     x="0px" xml:space="preserve" xmlns="http://www.w3.org/2000/svg"
     y="0px">
<style type="text/css">
	.st0 {
		fill-rule : evenodd;
		clip-rule : evenodd;
		fill      : #ffffff;
	}
</style>
		<defs>
</defs>
		<path class="st0" d="M211,0c0,56.8,0,56.8,0,56.8c-1.9,2-3.8,3-4.8,5c0-61.8,0-61.8,0-61.8c-60.4,0-60.4,0-60.4,0
	c0,51.8,0,51.8,0,51.8c-4.8,0-4.8,0-4.8,0C141,0,141,0,141,0C80.6,0,80.6,0,80.6,0c0,51.8,0,51.8,0,51.8c-4.8,0-4.8,0-4.8,0
	c0-51.8,0-51.8,0-51.8C15.3,0,15.3,0,15.3,0c0,58.8,0,58.8,0,58.8C0,112.6,0,112.6,0,112.6c13.4,0,13.4,0,13.4,0
	c6.7-23.9,6.7-23.9,6.7-23.9c1.9,0,1.9,0,1.9,0c11.5,23.9,11.5,23.9,11.5,23.9c16.3,0,16.3,0,16.3,0C38.4,88.7,38.4,88.7,38.4,88.7
	c24.9,0,24.9,0,24.9,0c-6.7,23.9-6.7,23.9-6.7,23.9c14.4,0,14.4,0,14.4,0c6.7-23.9,6.7-23.9,6.7-23.9c3.8,0,3.8,0,3.8,0
	c4.8,0,4.8,0,4.8,0c27.8,0,27.8,0,27.8,0c-6.7,23.9-6.7,23.9-6.7,23.9c15.3,0,15.3,0,15.3,0c6.7-23.9,6.7-23.9,6.7-23.9
	c6.7,0,6.7,0,6.7,0c0,23.9,0,23.9,0,23.9c12.5,0,12.5,0,12.5,0c14.4-23.9,14.4-23.9,14.4-23.9c9.6,0,9.6,0,9.6,0
	c-4.8,23.9-4.8,23.9-4.8,23.9c14.4,0,14.4,0,14.4,0c4.8-23.9,4.8-23.9,4.8-23.9c8.6,0,8.6,0,8.6,0c-1,7,1,14,5.8,18.9
	c5.8,5,14.4,6,21.1,6c8.6,0,18.2-1,26.9-3c5.8-21.9,5.8-21.9,5.8-21.9c16.3,0,16.3,0,16.3,0c0-88.7,0-88.7,0-88.7C211,0,211,0,211,0
	z M21.1,86.7L21.1,86.7z M72.9,54.8c-1,3-1,3-1,3c-7.7,27.9-7.7,27.9-7.7,27.9c0,1,0,1,0,1c-26.9,0-26.9,0-26.9,0
	c-1.9-5-1.9-5-1.9-5c28.8-29.9,28.8-29.9,28.8-29.9c-18.2,0-18.2,0-18.2,0C24,76.8,24,76.8,24,76.8c6.7-24.9,6.7-24.9,6.7-24.9
	c-13.4,0-13.4,0-13.4,0c0-49.8,0-49.8,0-49.8c55.6,0,55.6,0,55.6,0C72.9,54.8,72.9,54.8,72.9,54.8z M89.2,78.7L89.2,78.7
	c-1,0-1.9,0-1.9,0c-1,0-1.9,0-1.9,0c-3.8,0-3.8,0-3.8,0c1.9-7,1.9-7,1.9-7c0-3,0-3,0-3c1.9-7,1.9-7,1.9-7c1,0,1.9,0,2.9,0
	c2.9,0,2.9,0,2.9,0c4.8,0,7.7,0,8.6,1c1,2,1,4,0,7C97.8,74.8,95.9,77.8,89.2,78.7 M129.5,86.7c5.8-21.9,5.8-21.9,5.8-21.9
	c1,21.9,1,21.9,1,21.9C129.5,86.7,129.5,86.7,129.5,86.7z M139.1,51.8c-14.4,0-14.4,0-14.4,0c-9.6,34.9-9.6,34.9-9.6,34.9
	c-15.3,0-15.3,0-15.3,0c7.7-3,12.5-9,14.4-16.9c1-6,0-11-1.9-14c-3.8-5-11.5-4-18.2-4c-1,0-11.5,0-11.5,0c0-49.8,0-49.8,0-49.8
	c56.6,0,56.6,0,56.6,0C139.1,51.8,139.1,51.8,139.1,51.8z M172.7,86.7c-8.6,0-8.6,0-8.6,0c13.4-20.9,13.4-20.9,13.4-20.9
	C172.7,86.7,172.7,86.7,172.7,86.7z M204.3,52.8c0,12,0,12,0,12c-3.8,6-6.7,12-7.7,16.9c-1,1-1,3-1,5c-8.6,0-8.6,0-8.6,0
	c7.7-34.9,7.7-34.9,7.7-34.9c-24,0-24,0-24,0c-21.1,34.9-21.1,34.9-21.1,34.9c-1.9,0-1.9,0-1.9,0c0-84.7,0-84.7,0-84.7
	c56.6,0,56.6,0,56.6,0C204.3,52.8,204.3,52.8,204.3,52.8z M236,100.7c-2.9,1-5.8,1-8.6,1c-8.6,0-14.4-4-14.4-13
	c25.9,0,25.9,0,25.9,0C236,100.7,236,100.7,236,100.7z M269.5,86.7c-14.4,0-14.4,0-14.4,0c2.9-10,2.9-10,2.9-10
	c-28.8,0-28.8,0-28.8,0c-1.9,10-1.9,10-1.9,10c-14.4,0-14.4,0-14.4,0c0-2,0-2,0-2c1-1,1-2,1-4c2.9-10,9.6-20.9,20.1-20.9
	c4.8,0,9.6,2,8.6,9c17.3,0,17.3,0,17.3,0c1-3,1.9-8-1.9-13c-2.9-5-10.6-8-20.1-8c-6.7,0-16.3,2-24.9,7C213,2,213,2,213,2
	c56.6,0,56.6,0,56.6,0C269.5,86.7,269.5,86.7,269.5,86.7z"/>
</svg>
